<?xml version="1.0" encoding="utf-8"?>
<!-- Generator: Adobe Illustrator 24.1.0, SVG Export Plug-In . SVG Version: 6.00 Build 0)  -->
<svg version="1.1" id="Capa_1" xmlns="http://www.w3.org/2000/svg" xmlns:xlink="http://www.w3.org/1999/xlink" x="0px" y="0px"
	 viewBox="0 0 1003 318" style="enable-background:new 0 0 1003 318;" xml:space="preserve">
<style type="text/css">
	.st0{fill:#FFFFFF;}
</style>
<g>
	<path class="st0" d="M219.47,78.25c-6.2-15.3-15.3-28.4-27.2-39.5c-22.1-20.3-50.6-30.5-85.3-30.5h-90.6c-2.2,0-4.1,0.8-5.6,2.3
		s-2.3,3.4-2.3,5.6v227c0,2.2,0.8,4.1,2.4,5.7c1.5,1.5,3.4,2.3,5.6,2.3h90.5c17.3,0,33-2.5,47.3-7.6c14.3-5.1,26.9-12.6,38-22.6
		c11.9-11.1,21-24.3,27.2-39.7c6.2-15.4,9.3-32.6,9.3-51.6S225.67,93.55,219.47,78.25z M157.27,160.65c-3.4,7.9-7.8,14-13.1,18.3
		s-11.3,7.3-17.9,8.8c-6.6,1.5-13,2.3-19.2,2.3h-24.9c-2.2,0-4.1-0.8-5.6-2.5c-1.5-1.5-2.3-3.4-2.3-5.6V77.75c0-2.2,0.8-4.1,2.3-5.6
		s3.4-2.3,5.6-2.3h24.8c6.2,0,12.6,0.8,19.1,2.3c6.5,1.6,12.5,4.5,17.9,8.8c5.4,4.4,9.9,10.5,13.3,18.3c3.4,7.9,5.1,18.1,5.1,30.7
		S160.67,152.85,157.27,160.65z"/>
	<path class="st0" d="M485.37,111.84h-28.1v20c0,9.44,5.2,14.23,15.45,14.23h29.65v-18.22C502.37,117.37,496.5,111.84,485.37,111.84
		z"/>
	<path class="st0" d="M971.84,24.84h-28.01v102.71c0,13.87-4.83,25.4-14.75,35.23c-9.97,9.8-21.46,14.56-35.14,14.56
		c-13.99,0-25.53-4.74-35.29-14.5s-14.5-21.3-14.5-35.29V24.84h-27.91c-15.6,0-24.91,9.31-24.91,24.91v77.8
		c0,28.34,10.09,52.81,30,72.71s44.37,30,72.71,30c17.4,0,33.78-4.13,48.9-12.3c-0.19,1.54-0.41,2.98-0.65,4.3
		c-0.43,2.31-2.41,7.62-10.81,17.15c-10.76,11.86-23.01,17.63-37.43,17.63c-20.39,0-34.06-7.97-43.04-25.07l-2.59-4.93h-56.03
		l3.78,11.98c6.46,20.47,18.25,37.61,35.06,50.94c17.06,13.53,38.19,20.4,62.83,20.4c29.52,0,55.17-11.78,76.25-35.05
		c11.79-13.09,19.29-25.75,22.29-37.63c2.81-11.24,4.17-23.81,4.17-38.43V49.75C996.75,34.15,987.44,24.84,971.84,24.84z"/>
	<path class="st0" d="M753.94,48.56c-15.68-15.55-34.69-23.44-56.5-23.44c-20.25,0-37.92,6.52-52.65,19.4
		c-14.87-12.88-32.33-19.4-52.05-19.4c-22.14,0-41.26,7.9-56.85,23.48c-15.58,15.58-23.48,34.71-23.48,56.84v101.4
		c0,16.42,9.99,26.23,26.73,26.23h29.23V108.45c0-7.92,2.43-14.49,7.42-20.09c4.75-5.31,10.13-7.79,16.95-7.79
		c7.04,0,12.45,2.55,16.97,7.96c4.98,6.05,7.4,12.57,7.4,19.91v55.61c-0.15,9.03-0.27,18.04-0.4,27.05
		c-0.13,9.01-0.25,18.03-0.4,27.07l-0.18,10.7h55.86l1.07-65.05l0-55.47c0-7.92,2.43-14.5,7.42-20.09
		c4.75-5.31,10.13-7.79,16.95-7.79c6.54,0,11.89,2.51,16.8,7.85c5.09,5.61,7.57,12.16,7.57,20.02v124.63h29.23
		c16.74,0,26.73-9.8,26.73-26.23v-101.3C777.77,83.29,769.75,64.15,753.94,48.56z"/>
	<path class="st0" d="M416.7,55.08l-0.06-0.06c-20.44-20.33-45.2-30.64-73.57-30.64c-28.74,0-53.58,10.33-73.83,30.7
		c-20.2,20.31-30.44,45.03-30.44,73.47c0,28.75,10.25,53.58,30.47,73.8c20.22,20.21,45.04,30.47,73.8,30.47
		c28.44,0,53.16-10.24,73.47-30.44c20.37-20.25,30.7-45.09,30.7-73.77C447.35,100.31,437.08,75.57,416.7,55.08z M390.07,151.25
		c-1.92,3.48-4.19,6.64-6.73,9.48c-9.36,12.75-24.36,21.12-41.37,21.42c-2.6,0.1-5.1-0.1-7.6-0.4c-1,0.3-3-0.2-6.1-1.2
		c-2.3-0.5-4.5-1.2-6.6-2.1c-1.6-0.3-3.1,0-4.6,0.8c-0.3,0.2-0.7,0.3-1,0.5c-4.7,2.3-9.7,3.5-14.8,4.3c-2,0.3-3.9-0.4-4.6-1.8
		c-1.1-2.4-1.3-4.9-0.4-7.3c0.4-1.07,0.8-2.19,1.11-3.35c-1.41-0.34-2.59-1.25-2.91-2.35c-0.7-2.5-0.5-5,0.8-7.2
		c0.65-1.08,1.24-2.16,1.75-3.31c0.01-0.16,0.03-0.33,0.05-0.49c-5.1-8-8.2-17.4-8.4-27.6c-0.32-18.77,9.24-35.35,23.87-44.85
		c15.85-12.5,38.27-15.1,57.03-4.75C394.57,94.85,403.87,126.25,390.07,151.25z"/>
	<path class="st0" d="M316.27,135.65c-0.1,0-0.2-0.1-0.4-0.1c-0.3-0.1-0.5-0.2-0.8-0.4c-4.9-2-7.4-5.7-6.7-10.2
		c0.6-3.8,3.5-6.7,7.4-7.3c3.7-0.5,7.5,1.5,9.1,4.8c0.4,0.7,0.6,1.5,0.9,2.3c0.4,3-0.3,5.6-2.4,7.8
		C321.47,134.75,318.97,135.35,316.27,135.65z"/>
	<path class="st0" d="M342.47,135.65c-6.4-2.3-9.2-6.4-6.8-12.8c1.3-3.4,4.9-5.4,8.4-5.1c3.6,0.3,6.8,2.9,7.8,6.4
		c0.1,0.5,0.3,1,0.5,1.6C352.47,131.55,348.47,135.55,342.47,135.65z"/>
	<path class="st0" d="M366.67,134.85c-1.1-1.1-2.7-1.5-3.6-2.9c-2.3-3.4-2.5-7.2-0.2-10.4c2.3-3.3,5.8-4.5,9.8-3.3
		c3.5,1,5.9,4.3,6,8.3c0,0.3,0,0.5,0.1,0.8c-0.6,5.7-4.9,8.6-11.3,7.9h-0.1C367.17,135.05,366.97,134.95,366.67,134.85z"/>
</g>
</svg>
